<?xml version="1.0" encoding="utf-8"?>
<svg id="master-artboard" viewBox="0 0 432 432" version="1.1" xmlns="http://www.w3.org/2000/svg" x="0px" y="0px" style="enable-background:new 0 0 1096 780;" width="432px" height="432px"><rect id="ee-background" x="0" y="0" width="432" height="432" style="fill: white; fill-opacity: 0; pointer-events: none;"/><g transform="matrix(0.2783167660236358, 0, 0, 0.2783167660236358, 57.58127797115867, 120.3925327548763)"><g transform="matrix(1.523398756980896, 0, 0, 1.523398756980896, 166.68671795665756, 18.614448577766268)"><g transform="matrix(1, 0, 0, 1, 2.8429758350413294, -4.975207711322298)"><path d="m373.062 511.711c-8.115-1.626-13.389-9.521-11.763-17.651l27.979-140.878-52.837-33.384c-7.002-4.424-9.097-13.696-4.673-20.698 4.424-6.987 13.682-9.082 20.698-4.673l61.553 38.892c5.259 3.325 7.91 9.536 6.694 15.63l-30 151c-1.64 8.235-9.701 13.398-17.651 11.762z" fill="#38211a" transform="matrix(0.8407636880874634, -0.5414040684700013, 0.5414040684700013, 0.8407636880874634, -143.51759803022162, 208.2973778802937)"/><path d="m482.299 408.948-29.139-140.698-81.021-20.259c-8.042-2.007-12.935-10.151-10.913-18.179 1.992-8.057 10.078-14.022 18.179-11.913l91.234 23.559c5.625 1.406 9.946 5.918 11.074 11.602l30 150c1.626 8.13-3.647 16.025-11.763 17.651-7.945 1.636-16.009-3.523-17.651-11.763z" fill="#38211a" transform="matrix(0.9555245637893678, -0.29493603110313416, 0.29493603110313416, 0.9555245637893678, -98.92777451531629, 84.64062898668726)"/><path d="m310.118 134.872c-6.46-5.186-7.515-14.619-2.344-21.094l86.514-108.149c4.878-6.05 13.55-7.441 20.039-3.105l91 60c6.899 4.6 8.76 13.901 4.16 20.801-4.6 6.87-13.916 8.745-20.801 4.16l-79.56-52.368-77.915 97.412c-5.221 6.481-14.645 7.494-21.093 2.343z" fill="#38211a" transform="matrix(0.9986734986305238, 0.05155692994594576, -0.05155692994594576, 0.9986734986305238, 4.400584930682953, 25.98875368460324)"/><path d="m256.006.004c-8.291 0-15 6.709-15 15v90c0 8.291 6.709 15 15 15s15-6.709 15-15v-90c0-8.291-6.709-15-15-15z" fill="#fff5f5" transform="matrix(1, 0, 0, 1, -3.8662341555560715, -5.154978874075084)"/><path d="m271.006 105.004v-90c0-8.291-6.709-15-15-15v120c8.291 0 15-6.709 15-15z" fill="#efe2dd"/><g fill="#5b362a" transform="matrix(1, 0, 0, 1, -6.445180416107178, -64.32649943710209)"><path d="m12.062 420.711c-8.115-1.626-13.389-9.521-11.763-17.651l30-150c1.128-5.684 5.449-10.195 11.074-11.602l91.234-23.559c8.042-2.095 16.172 3.856 18.179 11.913 2.021 8.027-2.871 16.172-10.913 18.179l-82.02 20.259-28.14 140.698c-1.64 8.236-9.701 13.399-17.651 11.763z" transform="matrix(0.9665278196334839, 0.2565619945526123, -0.2565619945526123, 0.9665278196334839, 97.11337711929457, -20.682904193418096)"/><path d="m121.299 499.948-30-151c-1.216-6.094 1.436-12.305 6.694-15.63l61.553-38.892c7.031-4.409 16.289-2.314 20.698 4.673 4.424 7.002 2.329 16.274-4.673 20.698l-52.837 33.384 27.979 140.878c1.626 8.13-3.647 16.025-11.763 17.651-7.945 1.637-16.009-3.522-17.651-11.762z" transform="matrix(0.8619433641433717, 0.5070201754570008, -0.5070201754570008, 0.8619433641433717, 190.71483181815267, -12.893936573094265)"/><path d="m180.801 132.528-77.915-97.412-79.56 52.368c-6.914 4.585-16.216 2.71-20.801-4.16-4.6-6.899-2.739-16.201 4.16-20.801l91-60c6.504-4.336 15.161-2.944 20.039 3.105l86.514 108.149c5.171 6.475 4.116 15.908-2.344 21.094-6.449 5.154-15.872 4.138-21.093-2.343z" transform="matrix(1, 0, 0, 1, 5.2793802245893175, 113.42319620474484)"/><path d="M -66.40843200683594 326.1063232421875" style="fill: rgb(91, 54, 42); fill-opacity: 1; stroke: rgb(0, 0, 0); stroke-opacity: 1; stroke-width: 0; paint-order: fill;" transform="matrix(0.9665277772593134, 0.256561992091914, -0.256561992091914, 0.9665277772593134, 83.32574783145708, -0.19667311391955877)"/><path d="M 88.09431457519531 138.1143341064453" style="fill: rgb(91, 54, 42); fill-opacity: 1; stroke: rgb(0, 0, 0); stroke-opacity: 1; stroke-width: 0; paint-order: fill;" transform="matrix(0.9967875093442911, 0.08009158017672681, -0.08009158017672681, 0.9967875093442911, 16.233216058512312, -4.671724461774545)"/><path d="M 91.35272216796875 171.5129852294922" style="fill: rgb(91, 54, 42); fill-opacity: 1; stroke: rgb(0, 0, 0); stroke-opacity: 1; stroke-width: 0; paint-order: fill;" transform="matrix(0.9967875093442911, 0.08009158017672681, -0.08009158017672681, 0.9967875093442911, 16.233216058512312, -4.671724461774545)"/><path d="M 92.26078033447266 8.243205070495605" style="fill: rgb(91, 54, 42); fill-opacity: 1; stroke: rgb(0, 0, 0); stroke-opacity: 1; stroke-width: 0; paint-order: fill;" transform="matrix(1, 0, 0, 1, -2.5774894370375705, 21.90866021481918)"/></g><path d="m256.006 90.004c-74.559 0-135 61.441-135 136s60.441 135 135 135 135-60.441 135-135-60.441-136-135-136z" fill="#704c55" transform="matrix(1.0114820003509521, 0, 0, 1.0114820003509521, -7.559283292474788, -19.074916423731906)"/><path d="m391.006 226.004c0-74.559-60.441-136-135-136v271c74.559 0 135-60.442 135-135z" fill="#5b362a" transform="matrix(1.024062991142273, 0, 0, 1.024062991142273, -11.724034517321115, -20.834687440905043)"/><path d="m226.006 421.004c-8.291 0-15-6.709-15-15v-17.578c0-7.471.718-14.956 2.139-22.28 1.567-8.101 9.36-13.491 17.578-11.865 8.13 1.567 13.447 9.434 11.865 17.578-1.04 5.42-1.582 10.972-1.582 16.567v17.578c0 8.291-6.709 15-15 15z" fill="#704c55"/><path d="m286.006 421.004c-8.291 0-15-6.709-15-15v-17.578c0-5.596-.542-11.147-1.582-16.567-1.582-8.145 3.735-16.011 11.865-17.578 8.218-1.743 16.011 3.735 17.578 11.865 1.421 7.324 2.139 14.81 2.139 22.28v17.578c0 8.291-6.709 15-15 15z" fill="#5b362a"/><path d="M 331.006012 316.003998 A 75 75 0 0 1 256.006012 391.003998 A 75 75 0 0 1 181.006012 316.003998 A 75 75 0 0 1 256.006012 241.003998 A 75 75 0 0 1 331.006012 316.003998 Z" fill="#ff641a" transform="matrix(0.9999550191998201, 0.009484702266683104, -0.009484702266683104, 0.9999550191998201, 3.0087192403602785, -2.4139269416055242)"/><path d="m331.006 316.004c0-41.353-33.647-75-75-75v150c41.353 0 75-33.648 75-75z" fill="#f03800"/><path d="M 251.28622436523438 292.7076721191406 L 230.10658264160156 297.59527587890625" style="fill: rgb(255, 100, 26); fill-opacity: 1; stroke: rgb(0, 0, 0); stroke-opacity: 1; stroke-width: 0; paint-order: fill;" transform="matrix(0.9999550191998201, 0.009484702266683104, -0.009484702266683104, 0.9999550191998201, 3.0087192403602785, -2.4139269416055242)"/><path d="M 437.52374267578125 26.541675567626953" style="fill: rgb(56, 33, 26); fill-opacity: 1; stroke: rgb(0, 0, 0); stroke-opacity: 1; stroke-width: 0; paint-order: fill;" transform="matrix(1, 0, 0, 1, -5.685951670082602, 29.851246267933774)"/><path d="M 205.8212127685547 165.8474884033203 L 173.1269989013672 162.2937774658203" style="fill: rgb(112, 76, 85); fill-opacity: 1; stroke: rgb(0, 0, 0); stroke-opacity: 1; stroke-width: 0; paint-order: fill;" transform="matrix(1.0973982351797598, 0, 0, 1.0973982351797598, -37.46026841387391, -35.09192679824016)"/></g></g><g transform="matrix(0.5994700193405151, 0, 0, 0.5994700193405151, 84.90119928001423, -233.54690167247787)"><g transform="matrix(0.9999999999999999, 0, 0, 0.9999999999999999, -793.72998046875, 390.4522836212465)">
			<path fill="#CCCCCC" d="M 1583.2 831.9 C 1615.3 831.9 1665.3 840.8 1686.9 869.1 L 1705.8000000000002 869.1 L 1705.8000000000002 854.4 L 1693.7000000000003 854.4 C 1667.3000000000002 826.6 1618.4000000000003 817.3 1583.2000000000003 817.3 C 1548.1000000000004 817.3 1499.2000000000003 826.5999999999999 1472.8000000000002 854.4 L 1460.7000000000003 854.4 L 1460.7000000000003 869.1 L 1479.6000000000004 869.1 C 1501.1 840.8 1551.1 831.9 1583.2 831.9 Z" style="fill: rgb(51, 51, 51);"/>
			<path fill="#CCCCCC" d="M 1662.7 925.1999999999999 C 1679.7093505859375 905.9652099609375 1687.3 908.0999999999999 1687.3 908.0999999999999 L 1705.8 883.8999999999999 L 1678.8 883.8999999999999 C 1668 862.5999999999999 1629.3 846.7999999999998 1583.2 846.7999999999998 C 1537.2 846.7999999999998 1498.5 862.5999999999998 1487.7 883.8999999999999 L 1460.7 883.8999999999999 L 1460.7 895.9999999999999 L 1460.7 908.0999999999999 L 1487.7 908.0999999999999 C 1498.5 929.4999999999999 1537.2 945.3 1583.2 945.3 C 1615.8 945.3 1644.7 937.4 1662.7 925.1999999999999 Z M 1583.2 934.8 C 1540.3 934.8 1505.5 917.4 1505.5 895.9 C 1505.5 874.5 1540.3 857.1 1583.2 857.1 C 1626.2 857.1 1661 874.5 1661 895.9 C 1661 917.4 1626.2 934.8 1583.2 934.8 Z" style="fill: rgb(51, 51, 51);"/>
			<path fill="#CCCCCC" d="M 1583.2 871.9 C 1570 871.9 1559.3 882.6999999999999 1559.3 895.9 C 1559.3 909.1 1570 919.9 1583.2 919.9 C 1596.5 919.9 1607.2 909.1 1607.2 895.9 C 1607.2 882.7 1596.4 871.9 1583.2 871.9 Z" style="fill: rgb(51, 51, 51);"/>
		</g><path style="fill: rgb(51, 51, 51); fill-opacity: 1; stroke: rgb(0, 0, 0); stroke-opacity: 1; stroke-width: 0; paint-order: fill;"/></g><path d="M 187.9618682861328 245.15016174316406 L 156.9377899169922 247.63209533691406" style="fill: rgb(51, 51, 51); fill-opacity: 1; stroke: rgb(0, 0, 0); stroke-opacity: 1; stroke-width: 0; paint-order: fill;"/></g></svg>